<svg width="234" height="30" viewBox="0 0 234 30" fill="none" xmlns="http://www.w3.org/2000/svg">
<path d="M9.44 29.36C7.92 29.36 6.4 29.3067 4.88 29.2C3.38667 29.12 1.82667 28.9067 0.2 28.56V1.68C1.48 1.44 2.88 1.26667 4.4 1.16C5.92 1.02667 7.33333 0.959999 8.64 0.959999C10.4 0.959999 12.0133 1.09333 13.48 1.36C14.9733 1.6 16.2533 2.02667 17.32 2.64C18.3867 3.25333 19.2133 4.06667 19.8 5.08C20.4133 6.06666 20.72 7.29333 20.72 8.76C20.72 10.9733 19.6533 12.72 17.52 14C19.28 14.6667 20.48 15.5733 21.12 16.72C21.76 17.8667 22.08 19.16 22.08 20.6C22.08 23.5067 21.0133 25.6933 18.88 27.16C16.7733 28.6267 13.6267 29.36 9.44 29.36ZM6.28 16.92V24.08C6.73333 24.1333 7.22667 24.1733 7.76 24.2C8.29333 24.2267 8.88 24.24 9.52 24.24C11.3867 24.24 12.8933 23.9733 14.04 23.44C15.1867 22.9067 15.76 21.92 15.76 20.48C15.76 19.2 15.28 18.2933 14.32 17.76C13.36 17.2 11.9867 16.92 10.2 16.92H6.28ZM6.28 12.16H9.32C11.24 12.16 12.6133 11.92 13.44 11.44C14.2667 10.9333 14.68 10.1333 14.68 9.04C14.68 7.92 14.2533 7.13333 13.4 6.68C12.5467 6.22667 11.2933 6 9.64 6C9.10667 6 8.53333 6.01333 7.92 6.04C7.30667 6.04 6.76 6.06667 6.28 6.12V12.16ZM45.595 23.64V29H27.075V1.28H33.315V23.64H45.595ZM60.0634 29.56C58.1168 29.56 56.4368 29.2933 55.0234 28.76C53.6101 28.2 52.4368 27.44 51.5034 26.48C50.5968 25.4933 49.9168 24.3333 49.4634 23C49.0368 21.64 48.8234 20.1467 48.8234 18.52V1.28H55.0634V18C55.0634 19.12 55.1834 20.08 55.4234 20.88C55.6901 21.6533 56.0368 22.2933 56.4634 22.8C56.9168 23.28 57.4501 23.6267 58.0634 23.84C58.7034 24.0533 59.3968 24.16 60.1434 24.16C61.6634 24.16 62.8901 23.6933 63.8234 22.76C64.7834 21.8267 65.2634 20.24 65.2634 18V1.28H71.5034V18.52C71.5034 20.1467 71.2768 21.64 70.8234 23C70.3701 24.36 69.6768 25.5333 68.7434 26.52C67.8101 27.48 66.6234 28.2267 65.1834 28.76C63.7434 29.2933 62.0368 29.56 60.0634 29.56ZM77.5047 29V1.28H96.2247V6.52H83.7447V11.96H94.8247V17.08H83.7447V23.76H97.1447V29H77.5047ZM233.149 25.208C233.149 26.648 232.685 27.752 231.757 28.52C230.861 29.256 229.837 29.624 228.685 29.624C227.533 29.624 226.493 29.256 225.565 28.52C224.669 27.752 224.221 26.648 224.221 25.208C224.221 23.768 224.669 22.68 225.565 21.944C226.493 21.176 227.533 20.792 228.685 20.792C229.837 20.792 230.861 21.176 231.757 21.944C232.685 22.68 233.149 23.768 233.149 25.208Z" fill="#384AC2"/>
<path d="M122.323 1.28V6.6H113.963V29H107.723V6.6H99.3625V1.28H122.323ZM134.453 0.959999C138.613 0.959999 141.799 1.70667 144.013 3.2C146.226 4.66667 147.333 6.96 147.333 10.08C147.333 12.0267 146.879 13.6133 145.973 14.84C145.093 16.04 143.813 16.9867 142.133 17.68C142.693 18.3733 143.279 19.1733 143.893 20.08C144.506 20.96 145.106 21.8933 145.693 22.88C146.306 23.84 146.893 24.8533 147.453 25.92C148.013 26.96 148.533 27.9867 149.013 29H142.013C141.506 28.0933 140.986 27.1733 140.453 26.24C139.946 25.3067 139.413 24.4 138.853 23.52C138.319 22.64 137.786 21.8133 137.253 21.04C136.719 20.24 136.186 19.52 135.653 18.88H132.573V29H126.333V1.68C127.693 1.41333 129.093 1.22667 130.533 1.12C131.999 1.01333 133.306 0.959999 134.453 0.959999ZM134.813 6.28C134.359 6.28 133.946 6.29333 133.573 6.32C133.226 6.34667 132.893 6.37333 132.573 6.4V13.92H134.333C136.679 13.92 138.359 13.6267 139.373 13.04C140.386 12.4533 140.893 11.4533 140.893 10.04C140.893 8.68 140.373 7.72 139.333 7.16C138.319 6.57333 136.813 6.28 134.813 6.28ZM172.823 29C172.529 28.04 172.196 27.0533 171.823 26.04C171.476 25.0267 171.129 24.0133 170.783 23H159.983C159.636 24.0133 159.276 25.0267 158.903 26.04C158.556 27.0533 158.236 28.04 157.943 29H151.463C152.503 26.0133 153.489 23.2533 154.423 20.72C155.356 18.1867 156.263 15.8 157.143 13.56C158.049 11.32 158.929 9.2 159.783 7.2C160.663 5.17333 161.569 3.2 162.503 1.28H168.463C169.369 3.2 170.263 5.17333 171.143 7.2C172.023 9.2 172.903 11.32 173.783 13.56C174.689 15.8 175.609 18.1867 176.543 20.72C177.476 23.2533 178.463 26.0133 179.503 29H172.823ZM165.343 7.56C165.209 7.96 165.009 8.50667 164.743 9.2C164.476 9.89333 164.169 10.6933 163.823 11.6C163.476 12.5067 163.089 13.5067 162.663 14.6C162.263 15.6933 161.849 16.84 161.423 18.04H169.303C168.876 16.84 168.463 15.6933 168.063 14.6C167.663 13.5067 167.276 12.5067 166.903 11.6C166.556 10.6933 166.249 9.89333 165.983 9.2C165.716 8.50667 165.503 7.96 165.343 7.56ZM183.091 1.28H189.331V29H183.091V1.28ZM214.347 29C212.56 25.8267 210.627 22.6933 208.547 19.6C206.467 16.5067 204.254 13.5867 201.907 10.84V29H195.747V1.28H200.827C201.707 2.16 202.68 3.24 203.747 4.52C204.814 5.8 205.894 7.17333 206.987 8.64C208.107 10.08 209.214 11.5867 210.307 13.16C211.4 14.7067 212.427 16.2 213.387 17.64V1.28H219.587V29H214.347Z" fill="#FBAE17"/>
</svg>
